<svg xmlns="http://www.w3.org/2000/svg" xmlns:xlink="http://www.w3.org/1999/xlink" version="1.1" id="Capa_1" x="0px" y="0px" viewBox="0 0 512.01 512.01" style="enable-background:new 0 0 512.01 512.01;" xml:space="preserve" width="512px" height="512px">
<g>
	<g>
		<path d="M467.68,347.269c0,0,72.992-165.056-152.096-315.264c0,0,92.16,113.824,44.736,240.992c0,0-165.376-115.072-248.576-197.6    c0,0,103.968,146.784,141.28,176.736c0,0-62.048-31.52-205.824-151.552c0,0,164.928,211.168,242.688,255.264    c0,0-117.664,78.912-289.888-32.448c0,0,90.592,156.608,281.696,156.608c85.92,0,111.104-43.296,153.664-43.296    c44.032,0,70.56,43.296,70.56,43.296C531.616,418.021,467.68,347.269,467.68,347.269z" fill="#FFFFFF"/>
	</g>
</g>
<g>
</g>
<g>
</g>
<g>
</g>
<g>
</g>
<g>
</g>
<g>
</g>
<g>
</g>
<g>
</g>
<g>
</g>
<g>
</g>
<g>
</g>
<g>
</g>
<g>
</g>
<g>
</g>
<g>
</g>
</svg>