<svg xmlns="http://www.w3.org/2000/svg" xmlns:xlink="http://www.w3.org/1999/xlink" version="1.1" id="Capa_1" x="0px" y="0px" viewBox="0 0 512 512" style="enable-background:new 0 0 512 512;" xml:space="preserve" width="512px" height="512px">
<g>
	<g>
		<path d="M59.376,75.356c-13.421,0-24.34,10.919-24.34,24.34c0,13.422,10.919,24.34,24.34,24.34c13.421,0,24.34-10.919,24.34-24.34    C83.715,86.275,72.797,75.356,59.376,75.356z M59.376,108.828c-5.036,0-9.132-4.097-9.132-9.132s4.096-9.132,9.132-9.132    s9.132,4.097,9.132,9.132C68.507,104.732,64.411,108.828,59.376,108.828z" fill="#FFFFFF"/>
	</g>
</g>
<g>
	<g>
		<path d="M115.721,75.356c-13.421,0-24.34,10.92-24.34,24.34c0,13.422,10.918,24.34,24.34,24.34c13.421,0,24.34-10.919,24.34-24.34    S129.142,75.356,115.721,75.356z M115.721,108.828c-5.036,0-9.132-4.097-9.132-9.132s4.096-9.132,9.132-9.132    c5.036,0,9.132,4.097,9.132,9.132C124.853,104.732,120.757,108.828,115.721,108.828z" fill="#FFFFFF"/>
	</g>
</g>
<g>
	<g>
		<path d="M172.067,75.356c-13.421,0-24.34,10.919-24.34,24.34c0,13.422,10.92,24.34,24.34,24.34    c13.422,0,24.341-10.919,24.341-24.34S185.489,75.356,172.067,75.356z M172.067,108.828c-5.036,0-9.132-4.097-9.132-9.132    s4.096-9.132,9.132-9.132s9.133,4.097,9.133,9.132C181.2,104.732,177.103,108.828,172.067,108.828z" fill="#FFFFFF"/>
	</g>
</g>
<g>
	<g>
		<path d="M256.006,3.067c-4.201,0-7.604,3.405-7.604,7.604v40.483H40.108c-22.112,0-40.1,17.988-40.1,40.099v50.868    C0.007,142.174,0,142.225,0,142.278s0.007,0.104,0.008,0.157V402.94c0,22.111,17.988,40.099,40.1,40.099h208.294v58.29    c0,4.2,3.404,7.604,7.604,7.604c4.201,0,7.604-3.405,7.604-7.604V10.671C263.61,6.472,260.207,3.067,256.006,3.067z     M248.402,134.675H96.753c-4.201,0-7.604,3.405-7.604,7.604c0,4.2,3.404,7.604,7.604,7.604h151.649v277.948H40.108v-0.001    c-13.725,0-24.892-11.166-24.892-24.891V149.882h54.238c4.201,0,7.604-3.405,7.604-7.604c0-4.2-3.404-7.604-7.604-7.604H15.216    v-43.42c0-13.725,11.167-24.891,24.892-24.891h208.294V134.675z" fill="#FFFFFF"/>
	</g>
</g>
<g>
	<g>
		<path d="M511.998,91.253c0-22.111-17.988-40.099-40.099-40.099H281.352c-4.201,0-7.604,3.405-7.604,7.604    c0,4.2,3.404,7.604,7.604,7.604h113.644v43.435H281.352c-4.201,0-7.604,3.405-7.604,7.604c0,4.2,3.404,7.604,7.604,7.604H402.6    c4.201,0,7.604-3.405,7.604-7.604V66.363h18.25v40.9c0,4.2,3.404,7.604,7.604,7.604h60.731v19.808H281.352    c-4.201,0-7.604,3.405-7.604,7.604c0,4.2,3.404,7.604,7.604,7.604h70.222v6.445l-28.233,28.232    c-3.362-1.702-7.099-2.61-10.977-2.61c-6.501,0-12.614,2.532-17.212,7.13c-9.489,9.49-9.489,24.931,0,34.422    c4.746,4.745,10.978,7.118,17.212,7.118c6.233,0,12.467-2.372,17.213-7.118c7.611-7.612,9.102-19.047,4.505-28.174l30.474-30.474    c1.426-1.426,2.227-3.36,2.227-5.377v-9.594h10.977v88.887c-9.707,3.201-16.736,12.351-16.736,23.118    c0,13.422,10.919,24.34,24.34,24.34c13.422,0,24.341-10.919,24.341-24.34c0-10.766-7.029-19.916-16.737-23.118v-88.888h13.434    v57.754c0,2.017,0.801,3.951,2.227,5.377l30.474,30.474c-4.597,9.127-3.107,20.561,4.505,28.174    c4.746,4.745,10.978,7.118,17.212,7.118s12.467-2.372,17.213-7.118c9.489-9.491,9.489-24.932,0-34.422    c-4.597-4.598-10.71-7.13-17.213-7.13c-3.877,0-7.614,0.907-10.976,2.61l-28.233-28.232v-54.605h75.179v14.664h-53.634    c-4.201,0-7.604,3.405-7.604,7.604c0,4.2,3.404,7.604,7.604,7.604h53.634v14.671h-33.357c-4.201,0-7.604,3.405-7.604,7.604    c0,4.2,3.404,7.604,7.604,7.604h33.357V402.94c0,13.725-11.166,24.891-24.891,24.891h-3.476v-88.89    c9.707-3.201,16.736-12.351,16.736-23.117c0-13.421-10.919-24.34-24.34-24.34c-13.422,0-24.341,10.919-24.341,24.34    c0,10.766,7.029,19.917,16.737,23.117v88.89H281.352c-4.201,0-7.604,3.405-7.604,7.604c0,4.2,3.404,7.604,7.604,7.604h190.547    c22.111,0,40.099-17.988,40.099-40.099V107.557h0C512.002,107.458,511.998,91.253,511.998,91.253z M318.822,212.748    c-3.56,3.559-9.353,3.562-12.914,0c-3.561-3.561-3.561-9.355,0-12.915c1.725-1.725,4.018-2.675,6.456-2.675    c2.439,0,4.733,0.95,6.457,2.675C322.383,203.394,322.383,209.187,318.822,212.748z M394.497,261.887    c0,5.035-4.097,9.132-9.133,9.132s-9.132-4.097-9.132-9.132c0-5.035,4.096-9.132,9.132-9.132S394.497,256.852,394.497,261.887z     M454.363,247.992c1.725-1.725,4.018-2.675,6.456-2.675c2.439,0,4.733,0.95,6.457,2.675c3.561,3.561,3.561,9.354,0,12.915    c-3.56,3.559-9.353,3.562-12.914,0C450.802,257.346,450.802,251.552,454.363,247.992z M460.82,324.955    c-5.036,0-9.133-4.097-9.133-9.132c0-5.035,4.097-9.132,9.133-9.132c5.036,0,9.132,4.097,9.132,9.132    C469.952,320.859,465.856,324.955,460.82,324.955z M496.791,99.658h-53.128V66.363H471.9c13.725,0,24.891,11.166,24.891,24.891    V99.658z" fill="#FFFFFF"/>
	</g>
</g>
<g>
	<g>
		<path d="M417.295,358.698c-10.765,0-19.916,7.029-23.117,16.736h-20.47v-14.701c0-4.2-3.404-7.604-7.604-7.604    c-4.201,0-7.604,3.405-7.604,7.604v14.701h-14.194v-14.701c0-4.2-3.404-7.604-7.604-7.604s-7.604,3.405-7.604,7.604v14.701h-13.18    v-14.701c0-4.2-3.404-7.604-7.604-7.604s-7.604,3.405-7.604,7.604v14.701h-19.356c-4.201,0-7.604,3.405-7.604,7.604    c0,4.2,3.404,7.604,7.604,7.604h112.826c3.201,9.707,12.351,16.736,23.117,16.736c13.421,0,24.34-10.919,24.34-24.34    C441.636,369.616,430.716,358.698,417.295,358.698z M417.294,392.169c-5.036,0-9.132-4.097-9.132-9.132    c0-5.035,4.096-9.132,9.132-9.132s9.132,4.097,9.132,9.132C426.426,388.072,422.33,392.169,417.294,392.169z" fill="#FFFFFF"/>
	</g>
</g>
<g>
	<g>
		<path d="M385.364,298.122c-10.765,0-19.916,7.029-23.118,16.736h-42.278v-29.854c9.708-3.201,16.737-12.351,16.737-23.117    c0-13.421-10.919-24.34-24.341-24.34c-13.421,0-24.34,10.92-24.34,24.34c0,10.766,7.028,19.917,16.736,23.117v29.855h-23.409    v-0.001c-4.201,0-7.604,3.405-7.604,7.604c0,4.199,3.404,7.604,7.604,7.604h80.895c3.202,9.708,12.351,16.736,23.118,16.736    c13.422,0,24.341-10.919,24.341-24.34C409.705,309.041,398.786,298.122,385.364,298.122z M312.365,271.019    c-5.036,0-9.132-4.097-9.132-9.132c0-5.036,4.096-9.132,9.132-9.132s9.133,4.097,9.133,9.132    C321.498,266.922,317.401,271.019,312.365,271.019z M385.364,331.594c-5.036,0-9.132-4.097-9.132-9.132    c0-5.035,4.096-9.132,9.132-9.132s9.133,4.097,9.133,9.132C394.497,327.497,390.4,331.594,385.364,331.594z" fill="#FFFFFF"/>
	</g>
</g>
<g>
	<g>
		<path d="M373.198,79.381h-91.846c-4.201,0-7.604,3.405-7.604,7.604c0,4.199,3.404,7.604,7.604,7.604h91.846    c4.201,0,7.604-3.405,7.604-7.604C380.802,82.785,377.398,79.381,373.198,79.381z" fill="#FFFFFF"/>
	</g>
</g>
<g>
</g>
<g>
</g>
<g>
</g>
<g>
</g>
<g>
</g>
<g>
</g>
<g>
</g>
<g>
</g>
<g>
</g>
<g>
</g>
<g>
</g>
<g>
</g>
<g>
</g>
<g>
</g>
<g>
</g>
</svg>